<svg width="139" height="33" viewBox="0 0 139 33" fill="none" xmlns="http://www.w3.org/2000/svg">
<path d="M3.52639 4.384L3.48739 4.852L3.65639 4.618L7.50439 0.600999H9.12939L5.24239 4.631L9.35039 10H7.75139L4.31939 5.437L3.52639 6.204V10H2.25239V0.600999H3.52639V4.384ZM12.8476 10.13C12.3449 10.13 11.8856 10.0217 11.4696 9.805C11.0623 9.58833 10.7373 9.272 10.4946 8.856C10.2606 8.43133 10.1436 7.91567 10.1436 7.309C10.1436 6.711 10.2693 6.19533 10.5206 5.762C10.7719 5.32 11.1056 4.982 11.5216 4.748C11.9463 4.514 12.4099 4.397 12.9126 4.397C13.4153 4.397 13.8399 4.514 14.1866 4.748C14.5333 4.97333 14.7976 5.242 14.9796 5.554L14.9016 5.762L15.0186 4.618H16.1366V10H14.9276V8.596L15.0576 8.908C15.0229 8.99467 14.9449 9.10733 14.8236 9.246C14.7109 9.376 14.5549 9.51033 14.3556 9.649C14.1649 9.78767 13.9439 9.90467 13.6926 10C13.4413 10.0867 13.1596 10.13 12.8476 10.13ZM13.1726 9.129C13.4759 9.129 13.7489 9.07267 13.9916 8.96C14.2343 8.84733 14.4336 8.69133 14.5896 8.492C14.7543 8.284 14.8669 8.037 14.9276 7.751V6.698C14.8583 6.438 14.7369 6.21267 14.5636 6.022C14.3903 5.82267 14.1823 5.671 13.9396 5.567C13.6969 5.45433 13.4283 5.398 13.1336 5.398C12.8129 5.398 12.5183 5.476 12.2496 5.632C11.9809 5.788 11.7643 6.00467 11.5996 6.282C11.4436 6.55933 11.3656 6.88433 11.3656 7.257C11.3656 7.60367 11.4479 7.92 11.6126 8.206C11.7773 8.492 11.9983 8.71733 12.2756 8.882C12.5529 9.04667 12.8519 9.129 13.1726 9.129ZM19.3078 4.618L19.4118 5.827L19.3598 5.723C19.5591 5.31567 19.8408 4.995 20.2048 4.761C20.5774 4.527 21.0021 4.41 21.4788 4.41C21.7821 4.41 22.0508 4.45767 22.2848 4.553C22.5188 4.64833 22.7094 4.787 22.8568 4.969C23.0128 5.14233 23.1124 5.359 23.1558 5.619L23.0908 5.658C23.2988 5.268 23.5848 4.96467 23.9488 4.748C24.3214 4.52267 24.7114 4.41 25.1188 4.41C25.6474 4.41 26.0634 4.56167 26.3668 4.865C26.6788 5.15967 26.8391 5.54533 26.8478 6.022V10H25.6388V6.451C25.6301 6.17367 25.5608 5.944 25.4308 5.762C25.3094 5.57133 25.0928 5.46733 24.7808 5.45C24.4688 5.45 24.1871 5.54533 23.9358 5.736C23.6931 5.92667 23.5024 6.17367 23.3638 6.477C23.2251 6.77167 23.1514 7.09233 23.1428 7.439V10H21.9338V6.451C21.9251 6.17367 21.8514 5.944 21.7128 5.762C21.5828 5.57133 21.3618 5.46733 21.0498 5.45C20.7291 5.45 20.4474 5.54533 20.2048 5.736C19.9621 5.92667 19.7714 6.17367 19.6328 6.477C19.5028 6.78033 19.4378 7.10533 19.4378 7.452V10H18.2288V4.618H19.3078ZM32.1283 10.13C31.721 10.13 31.3267 10.0347 30.9453 9.844C30.5727 9.65333 30.2823 9.39767 30.0743 9.077L30.1523 8.7V12.587H28.9563V4.54H29.9963L30.1653 5.918L30.0353 5.541C30.2953 5.21167 30.6247 4.93867 31.0233 4.722C31.422 4.50533 31.8683 4.397 32.3623 4.397C32.865 4.397 33.3157 4.51833 33.7143 4.761C34.1217 5.00367 34.4423 5.34167 34.6763 5.775C34.9103 6.20833 35.0273 6.71533 35.0273 7.296C35.0273 7.87667 34.9017 8.37933 34.6503 8.804C34.399 9.22867 34.0523 9.558 33.6103 9.792C33.177 10.0173 32.683 10.13 32.1283 10.13ZM31.8943 9.168C32.241 9.168 32.5573 9.09 32.8433 8.934C33.138 8.76933 33.372 8.54833 33.5453 8.271C33.7187 7.985 33.8053 7.66433 33.8053 7.309C33.8053 6.945 33.723 6.62433 33.5583 6.347C33.3937 6.061 33.1727 5.83567 32.8953 5.671C32.6267 5.50633 32.3233 5.424 31.9853 5.424C31.6733 5.424 31.3917 5.48467 31.1403 5.606C30.889 5.72733 30.681 5.89633 30.5163 6.113C30.3517 6.321 30.2347 6.56367 30.1653 6.841V7.738C30.2087 8.01533 30.3127 8.26233 30.4773 8.479C30.642 8.69567 30.8457 8.86467 31.0883 8.986C31.3397 9.10733 31.6083 9.168 31.8943 9.168ZM38.3654 10.208C37.88 10.208 37.477 10.0607 37.1564 9.766C36.8444 9.46267 36.6797 9.07267 36.6624 8.596V4.618H37.8714V8.167C37.8887 8.46167 37.971 8.7 38.1184 8.882C38.2744 9.064 38.517 9.15933 38.8464 9.168C39.1497 9.168 39.4184 9.08133 39.6524 8.908C39.895 8.726 40.09 8.48333 40.2374 8.18C40.3847 7.868 40.4584 7.517 40.4584 7.127V4.618H41.6674V10H40.5624L40.4584 8.674L40.5234 8.908C40.4194 9.15933 40.259 9.38467 40.0424 9.584C39.8344 9.77467 39.5874 9.92633 39.3014 10.039C39.0154 10.1517 38.7034 10.208 38.3654 10.208ZM45.2671 10.104C44.8857 10.104 44.5131 10.039 44.1491 9.909C43.7937 9.77033 43.4991 9.56667 43.2651 9.298L43.7721 8.596C43.9974 8.81267 44.2271 8.97733 44.4611 9.09C44.7037 9.194 44.9421 9.246 45.1761 9.246C45.3494 9.246 45.5097 9.22433 45.6571 9.181C45.8044 9.13767 45.9214 9.06833 46.0081 8.973C46.1034 8.869 46.1511 8.73033 46.1511 8.557C46.1511 8.36633 46.0861 8.21467 45.9561 8.102C45.8347 7.98933 45.6744 7.89833 45.4751 7.829C45.2844 7.75967 45.0807 7.69467 44.8641 7.634C44.4221 7.48667 44.0841 7.283 43.8501 7.023C43.6161 6.763 43.4991 6.44667 43.4991 6.074C43.4991 5.788 43.5684 5.52367 43.7071 5.281C43.8544 5.02967 44.0667 4.826 44.3441 4.67C44.6301 4.514 44.9811 4.436 45.3971 4.436C45.7697 4.436 46.1034 4.48367 46.3981 4.579C46.6927 4.66567 46.9701 4.813 47.2301 5.021L46.7491 5.775C46.5931 5.61033 46.4067 5.489 46.1901 5.411C45.9734 5.333 45.7784 5.28967 45.6051 5.281C45.4577 5.27233 45.3147 5.294 45.1761 5.346C45.0461 5.398 44.9377 5.47167 44.8511 5.567C44.7644 5.66233 44.7211 5.775 44.7211 5.905C44.7211 6.087 44.7817 6.23433 44.9031 6.347C45.0244 6.45967 45.1804 6.55067 45.3711 6.62C45.5704 6.68067 45.7654 6.74567 45.9561 6.815C46.2247 6.893 46.4631 6.997 46.6711 7.127C46.8791 7.257 47.0437 7.41733 47.1651 7.608C47.2951 7.79867 47.3601 8.037 47.3601 8.323C47.3601 8.64367 47.2821 8.94267 47.1261 9.22C46.9787 9.48867 46.7491 9.70533 46.4371 9.87C46.1337 10.026 45.7437 10.104 45.2671 10.104ZM15.9714 13.601C16.656 13.601 17.241 13.718 17.7264 13.952C18.2117 14.1773 18.5844 14.5067 18.8444 14.94C19.113 15.3733 19.2474 15.8977 19.2474 16.513C19.2474 16.8857 19.191 17.254 19.0784 17.618C18.9657 17.9733 18.7837 18.2983 18.5324 18.593C18.2897 18.879 17.969 19.1087 17.5704 19.282C17.1717 19.4553 16.6864 19.542 16.1144 19.542H14.7234V23H13.4624V13.601H15.9714ZM16.1014 18.333C16.474 18.333 16.7817 18.2723 17.0244 18.151C17.267 18.0297 17.4577 17.878 17.5964 17.696C17.735 17.5053 17.8347 17.306 17.8954 17.098C17.956 16.89 17.9864 16.7037 17.9864 16.539C17.9864 16.3483 17.956 16.1533 17.8954 15.954C17.8347 15.746 17.7307 15.5597 17.5834 15.395C17.4447 15.2217 17.2584 15.083 17.0244 14.979C16.799 14.8663 16.5174 14.81 16.1794 14.81H14.7234V18.333H16.1014ZM23.3908 23.13C22.7755 23.13 22.2468 23.0087 21.8048 22.766C21.3628 22.5147 21.0205 22.1767 20.7778 21.752C20.5438 21.3187 20.4268 20.8247 20.4268 20.27C20.4268 19.7413 20.5611 19.2603 20.8298 18.827C21.0985 18.3937 21.4581 18.047 21.9088 17.787C22.3595 17.527 22.8621 17.397 23.4168 17.397C24.1275 17.397 24.7168 17.605 25.1848 18.021C25.6528 18.437 25.9691 19.009 26.1338 19.737L21.7008 21.297L21.4148 20.582L25.0548 19.256L24.7948 19.425C24.6908 19.139 24.5175 18.892 24.2748 18.684C24.0321 18.4673 23.7158 18.359 23.3258 18.359C22.9965 18.359 22.7018 18.4413 22.4418 18.606C22.1818 18.762 21.9781 18.9787 21.8308 19.256C21.6835 19.5333 21.6098 19.8497 21.6098 20.205C21.6098 20.5777 21.6878 20.907 21.8438 21.193C21.9998 21.4703 22.2121 21.6913 22.4808 21.856C22.7581 22.012 23.0701 22.09 23.4168 22.09C23.6508 22.09 23.8761 22.0467 24.0928 21.96C24.3181 21.8733 24.5261 21.7607 24.7168 21.622L25.2758 22.519C25.0071 22.701 24.7038 22.8483 24.3658 22.961C24.0365 23.0737 23.7115 23.13 23.3908 23.13ZM29.8327 23.13C29.3387 23.13 28.888 23.013 28.4807 22.779C28.082 22.5363 27.7657 22.1983 27.5317 21.765C27.2977 21.323 27.1807 20.816 27.1807 20.244C27.1807 19.646 27.302 19.1347 27.5447 18.71C27.796 18.2853 28.134 17.9603 28.5587 17.735C28.9834 17.5097 29.46 17.397 29.9887 17.397C30.4134 17.397 30.8164 17.488 31.1977 17.67C31.5877 17.852 31.891 18.1033 32.1077 18.424L32.0557 18.853V12.938H33.2517V23H32.0427V21.661L32.1727 21.999C31.9214 22.3283 31.5964 22.6013 31.1977 22.818C30.799 23.026 30.344 23.13 29.8327 23.13ZM30.2097 22.103C30.5304 22.103 30.8164 22.0467 31.0677 21.934C31.319 21.8127 31.527 21.648 31.6917 21.44C31.8564 21.232 31.9734 20.985 32.0427 20.699V19.685C31.9734 19.425 31.8477 19.1997 31.6657 19.009C31.4924 18.8097 31.28 18.6537 31.0287 18.541C30.786 18.4197 30.513 18.359 30.2097 18.359C29.8804 18.359 29.577 18.4413 29.2997 18.606C29.031 18.762 28.8144 18.9787 28.6497 19.256C28.485 19.5333 28.4027 19.854 28.4027 20.218C28.4027 20.5733 28.485 20.894 28.6497 21.18C28.8144 21.4573 29.0354 21.6827 29.3127 21.856C29.59 22.0207 29.889 22.103 30.2097 22.103ZM37.0578 23.208C36.5724 23.208 36.1694 23.0607 35.8488 22.766C35.5368 22.4627 35.3721 22.0727 35.3548 21.596V17.618H36.5638V21.167C36.5811 21.4617 36.6634 21.7 36.8108 21.882C36.9668 22.064 37.2094 22.1593 37.5388 22.168C37.8421 22.168 38.1108 22.0813 38.3448 21.908C38.5874 21.726 38.7824 21.4833 38.9298 21.18C39.0771 20.868 39.1508 20.517 39.1508 20.127V17.618H40.3598V23H39.2548L39.1508 21.674L39.2158 21.908C39.1118 22.1593 38.9514 22.3847 38.7348 22.584C38.5268 22.7747 38.2798 22.9263 37.9938 23.039C37.7078 23.1517 37.3958 23.208 37.0578 23.208ZM42.4514 12.938H43.6604V23H42.4514V12.938ZM45.7522 17.618H46.9612V23H45.7522V17.618ZM45.6612 15.668C45.6612 15.4773 45.7349 15.317 45.8822 15.187C46.0382 15.057 46.2072 14.992 46.3892 14.992C46.5712 14.992 46.7316 15.057 46.8702 15.187C47.0176 15.317 47.0912 15.4773 47.0912 15.668C47.0912 15.8673 47.0176 16.032 46.8702 16.162C46.7316 16.2833 46.5712 16.344 46.3892 16.344C46.2072 16.344 46.0382 16.279 45.8822 16.149C45.7349 16.019 45.6612 15.8587 45.6612 15.668Z" fill="#F8F4E8"/>
<path d="M53.348 18.832C53.348 19.7467 53.5627 20.568 53.992 21.296C54.44 22.0053 55.028 22.5653 55.756 22.976C56.484 23.3867 57.3053 23.592 58.22 23.592C59.172 23.592 60.0213 23.3867 60.768 22.976C61.5147 22.5653 62.1027 22.0053 62.532 21.296C62.9613 20.568 63.176 19.7467 63.176 18.832V5.756H65.836V18.916C65.836 20.3907 65.4907 21.6787 64.8 22.78C64.128 23.8813 63.2133 24.7307 62.056 25.328C60.9173 25.9253 59.6387 26.224 58.22 26.224C56.8013 26.224 55.5227 25.9253 54.384 25.328C53.2453 24.7307 52.34 23.8813 51.668 22.78C50.996 21.6787 50.66 20.3907 50.66 18.916V5.756H53.348V18.832ZM76.7965 5.756C78.2711 5.756 79.5311 6.008 80.5765 6.512C81.6218 6.99733 82.4245 7.70667 82.9845 8.64C83.5631 9.57333 83.8525 10.7027 83.8525 12.028C83.8525 12.8307 83.7311 13.624 83.4885 14.408C83.2458 15.1733 82.8538 15.8733 82.3125 16.508C81.7898 17.124 81.0991 17.6187 80.2405 17.992C79.3818 18.3653 78.3365 18.552 77.1045 18.552H74.1085V26H71.3925V5.756H76.7965ZM77.0765 15.948C77.8791 15.948 78.5418 15.8173 79.0645 15.556C79.5871 15.2947 79.9978 14.968 80.2965 14.576C80.5951 14.1653 80.8098 13.736 80.9405 13.288C81.0711 12.84 81.1365 12.4387 81.1365 12.084C81.1365 11.6733 81.0711 11.2533 80.9405 10.824C80.8098 10.376 80.5858 9.97467 80.2685 9.62C79.9698 9.24667 79.5685 8.948 79.0645 8.724C78.5791 8.48133 77.9725 8.36 77.2445 8.36H74.1085V15.948H77.0765ZM105.573 26.644L89.9208 10.768L90.7048 10.964L90.7608 26H88.0448V5.14H88.1848L103.669 21.072L103.025 20.932L102.969 5.756H105.657V26.644H105.573ZM112.934 5.756L119.598 22.5L118.058 22.192L124.386 5.756H127.55L118.618 26.924L109.714 5.756H112.934ZM135.644 22.332C135.644 23.9747 135.327 25.3747 134.692 26.532C134.076 27.6893 133.227 28.5667 132.144 29.164C131.061 29.78 129.82 30.116 128.42 30.172V27.54C129.727 27.4653 130.8 26.9987 131.64 26.14C132.499 25.3 132.928 24.0027 132.928 22.248V5.756H135.644V22.332Z" fill="#F8F4E8"/>
</svg>
